<?xml version="1.0" encoding="iso-8859-1"?>
<!-- Generator: Adobe Illustrator 19.0.0, SVG Export Plug-In . SVG Version: 6.00 Build 0)  -->
<svg version="1.1" id="Layer_1" xmlns="http://www.w3.org/2000/svg" xmlns:xlink="http://www.w3.org/1999/xlink" x="0px" y="0px"
	 viewBox="0 0 512 512" style="enable-background:new 0 0 512 512;" xml:space="preserve">
<g>
	<g>
		<path d="M512,121.254V66.776h-69.302V44.722H427.49v22.055H84.51V44.722H69.302v22.055H0v54.477h23.488v268.937H7.599v15.208
			h15.889h224.908v13.356c-9.999,3.221-17.255,12.609-17.255,23.665c0,13.708,11.152,24.859,24.859,24.859
			s24.859-11.152,24.859-24.859c0-11.055-7.256-20.444-17.255-23.665v-13.356h224.908h15.886v-15.208h-15.886V121.254H512z
			 M265.651,442.419c0,5.322-4.329,9.651-9.651,9.651s-9.651-4.329-9.651-9.651c0-5.322,4.329-9.651,9.651-9.651
			S265.651,437.097,265.651,442.419z M473.304,390.191H38.696V121.254h434.607V390.191z M23.488,106.046h-8.28V81.984h481.584
			v24.061h-8.28H23.488z"/>
	</g>
</g>
<g>
	<g>
		<polygon points="210.685,203.143 192.906,203.143 164.43,243.617 135.954,203.143 118.03,203.143 155.757,255.181 
			119.186,305.773 137.11,305.773 164.43,266.744 191.749,305.773 209.528,305.773 173.102,255.181 		"/>
	</g>
</g>
<g>
	<g>
		<polygon points="262.576,248.098 262.576,230.608 248.266,230.608 248.266,248.098 232.222,248.098 232.222,260.818 
			248.266,260.818 248.266,278.308 262.576,278.308 262.576,260.818 278.621,260.818 278.621,248.098 		"/>
	</g>
</g>
<g>
	<g>
		<polygon points="376.191,203.143 347.571,254.602 319.239,203.143 301.46,203.143 339.476,268.769 339.476,305.773 
			355.665,305.773 355.665,269.058 393.97,203.143 		"/>
	</g>
</g>
<g>
	<g>
		<rect x="293.16" y="356.264" width="110.056" height="15.208"/>
	</g>
</g>
<g>
	<g>
		<rect x="417.065" y="356.264" width="22.826" height="15.208"/>
	</g>
</g>
<g>
	<g>
		<polygon points="54.789,139.115 54.789,170.36 69.998,170.36 69.998,154.323 114.567,154.323 114.567,139.115 		"/>
	</g>
</g>
<g>
	<g>
		<rect x="125.385" y="139.113" width="20.379" height="15.208"/>
	</g>
</g>
<g>
</g>
<g>
</g>
<g>
</g>
<g>
</g>
<g>
</g>
<g>
</g>
<g>
</g>
<g>
</g>
<g>
</g>
<g>
</g>
<g>
</g>
<g>
</g>
<g>
</g>
<g>
</g>
<g>
</g>
</svg>
