<?xml version="1.0" standalone="no"?>
<!DOCTYPE svg PUBLIC "-//W3C//DTD SVG 20010904//EN"
 "http://www.w3.org/TR/2001/REC-SVG-20010904/DTD/svg10.dtd">
<svg version="1.0" xmlns="http://www.w3.org/2000/svg"
 width="64.000000pt" height="64.000000pt" viewBox="0 0 64.000000 64.000000"
 preserveAspectRatio="xMidYMid meet">

<g transform="translate(0.000000,64.000000) scale(0.100000,-0.100000)"
fill="#000000" stroke="none">
<path d="M216 624 c-9 -8 -16 -20 -16 -25 0 -5 -20 -9 -45 -9 -41 0 -45 -2
-45 -25 0 -22 -4 -25 -40 -25 l-40 0 0 -270 0 -270 210 0 210 0 0 137 0 137
80 82 c44 45 80 88 80 96 0 7 -7 24 -16 36 -22 32 -64 29 -99 -8 -16 -16 -32
-30 -37 -30 -4 0 -8 20 -8 45 0 45 0 45 -35 45 -31 0 -35 3 -35 25 0 21 -5 25
-31 25 -21 0 -40 9 -55 25 -26 29 -56 32 -78 9z m69 -31 c7 -17 18 -23 42 -23
32 0 33 -2 33 -40 l0 -40 -115 0 -115 0 0 40 c0 40 0 40 38 40 32 0 41 5 50
26 15 31 52 30 67 -3z m-175 -93 l0 -30 135 0 135 0 0 31 c0 27 3 30 28 27 25
-3 27 -7 30 -52 l3 -49 -78 -79 c-70 -70 -81 -78 -116 -78 -23 0 -36 -4 -32
-10 3 -5 15 -10 26 -10 22 0 22 1 8 -56 -7 -25 -17 -44 -25 -44 -8 0 -14 -4
-14 -10 0 -13 167 -13 175 0 4 6 -12 10 -42 10 l-48 1 30 13 c17 8 46 30 64
50 19 20 39 36 43 36 4 0 8 -52 8 -115 l0 -115 -195 0 -195 0 0 255 0 255 30
0 c27 0 30 -3 30 -30z m474 -32 c8 -13 7 -21 -2 -30 -9 -9 -17 -7 -37 12 -13
12 -22 27 -19 32 9 14 46 5 58 -14z m-46 -31 l22 -23 -113 -112 -113 -113 -24
26 -24 26 109 109 c60 61 112 110 116 110 3 0 15 -10 27 -23z m-233 -237 c17
-18 16 -19 -9 -26 -33 -8 -37 -4 -29 24 7 27 15 28 38 2z"/>
<path d="M232 583 c2 -10 10 -18 18 -18 8 0 16 8 18 18 2 12 -3 17 -18 17 -15
0 -20 -5 -18 -17z"/>
<path d="M290 550 c0 -5 6 -10 14 -10 8 0 21 -3 30 -6 11 -4 16 -1 16 10 0 11
-9 16 -30 16 -16 0 -30 -4 -30 -10z"/>
<path d="M90 385 l0 -45 40 0 40 0 0 45 0 45 -40 0 -40 0 0 -45z m60 0 c0 -20
-5 -25 -25 -25 -20 0 -25 5 -25 25 0 20 5 25 25 25 20 0 25 -5 25 -25z"/>
<path d="M215 390 c-4 -6 27 -10 85 -10 58 0 89 4 85 10 -3 6 -42 10 -85 10
-43 0 -82 -4 -85 -10z"/>
<path d="M90 265 l0 -45 40 0 40 0 0 45 0 45 -40 0 -40 0 0 -45z m60 0 c0 -20
-5 -25 -25 -25 -20 0 -25 5 -25 25 0 20 5 25 25 25 20 0 25 -5 25 -25z"/>
<path d="M90 145 l0 -45 40 0 40 0 0 45 0 45 -40 0 -40 0 0 -45z m60 0 c0 -20
-5 -25 -25 -25 -18 0 -25 5 -25 18 0 10 3 22 7 25 3 4 15 7 25 7 13 0 18 -7
18 -25z"/>
<path d="M400 70 c0 -18 -7 -20 -60 -20 -33 0 -60 -4 -60 -10 0 -6 30 -10 70
-10 l70 0 0 30 c0 17 -4 30 -10 30 -5 0 -10 -9 -10 -20z"/>
<path d="M230 40 c0 -5 5 -10 10 -10 6 0 10 5 10 10 0 6 -4 10 -10 10 -5 0
-10 -4 -10 -10z"/>
<path d="M510 418 c0 -6 -7 -20 -17 -30 -9 -10 -12 -18 -6 -18 14 0 54 45 46
53 -10 11 -23 8 -23 -5z"/>
</g>
</svg>
