<?xml version="1.0"?>
<svg xmlns="http://www.w3.org/2000/svg" width="512" height="512" viewBox="0 0 128 128"><g><path d="M34.25,56.332a1.749,1.749,0,0,0-1.75,1.75V67A1.75,1.75,0,0,0,36,67V58.082A1.749,1.749,0,0,0,34.25,56.332Z"/><path d="M122.234,31.494,64.734,4.911a1.751,1.751,0,0,0-1.468,0L5.766,31.494a1.751,1.751,0,0,0,0,3.178L26.5,44.258V70.98a13.755,13.755,0,0,0,9.213,12.982l6.579,2.3a65.94,65.94,0,0,0,43.415,0L89,85.111V97.927a4.749,4.749,0,0,0-3,4.406,4.7,4.7,0,0,0,.642,2.341l-2.748,16.539a1.749,1.749,0,0,0,1.726,2.037H95.88a1.749,1.749,0,0,0,1.726-2.037l-2.748-16.539a4.7,4.7,0,0,0,.642-2.341,4.749,4.749,0,0,0-3-4.406V83.878a13.751,13.751,0,0,0,9-12.9V44.258l20.734-9.586a1.751,1.751,0,0,0,0-3.178ZM84.552,82.959a62.405,62.405,0,0,1-41.1,0l-6.581-2.3A10.252,10.252,0,0,1,30,70.98v-25.1l33.266,15.38a1.754,1.754,0,0,0,1.468,0L89,50.037V81.4Zm6.2,20.624a1.25,1.25,0,1,1,1.25-1.25A1.252,1.252,0,0,1,90.75,103.583ZM87.685,119.75l2.121-12.762a4.738,4.738,0,0,0,1.888,0l2.121,12.762ZM98,70.98a10.257,10.257,0,0,1-5.5,9.082V48.419L98,45.876ZM91.1,45.21,64.808,31.527a1.751,1.751,0,0,0-1.616,3.106L87.085,47.066,64,57.739,10.67,33.083,64,8.428l53.33,24.655Z"/></g></svg>
